<svg width="1200" height="1600" viewBox="0 0 1200 1600" fill="none" xmlns="http://www.w3.org/2000/svg">
<g clip-path="url(#clip0)">
<mask id="mask0" mask-type="alpha" maskUnits="userSpaceOnUse" x="0" y="0" width="1200" height="1600">
<rect x="1200" width="1600" height="1200" transform="rotate(90 1200 0)" fill="#FFFFFE"/>
</mask>
<g mask="url(#mask0)">
<path d="M720 360.6C720 426.874 773.726 480.6 840 480.6C906.274 480.6 960 426.874 960 360.6C960 294.325 906.274 240.6 840 240.6C773.726 240.6 720 294.325 720 360.6Z" fill="#494274"/>
<path d="M768.956 361.196C768.956 400.103 800.497 431.644 839.404 431.644C878.311 431.644 909.852 400.103 909.852 361.196C909.852 322.289 878.311 290.748 839.404 290.748C800.497 290.748 768.956 322.289 768.956 361.196Z" fill="#FF9900" fill-opacity="0.1"/>
<path d="M802.388 361.197C802.388 381.639 818.96 398.211 839.403 398.211C859.846 398.211 876.418 381.639 876.418 361.197C876.418 340.754 859.846 324.182 839.403 324.182C818.96 324.182 802.388 340.754 802.388 361.197Z" fill="#F08080"/>
<path d="M768.956 840.596C768.956 879.503 800.497 911.044 839.404 911.044C878.311 911.044 909.852 879.503 909.852 840.596C909.852 801.689 878.311 770.148 839.404 770.148C800.497 770.148 768.956 801.689 768.956 840.596Z" fill="#FF9900" fill-opacity="0.1"/>
<path d="M802.388 840.597C802.388 861.04 818.96 877.612 839.403 877.612C859.846 877.612 876.418 861.04 876.418 840.597C876.418 820.154 859.846 803.582 839.403 803.582C818.96 803.582 802.388 820.154 802.388 840.597Z" fill="#5552FA" fill-opacity="0.1"/>
<path d="M431.044 1320.6C431.044 1359.5 399.503 1391.04 360.596 1391.04C321.689 1391.04 290.148 1359.5 290.148 1320.6C290.148 1281.69 321.689 1250.15 360.596 1250.15C399.503 1250.15 431.044 1281.69 431.044 1320.6Z" fill="#FF9900" fill-opacity="0.1"/>
<path d="M397.612 1320.6C397.612 1341.04 381.04 1357.61 360.597 1357.61C340.154 1357.61 323.582 1341.04 323.582 1320.6C323.582 1300.15 340.154 1283.58 360.597 1283.58C381.04 1283.58 397.612 1300.15 397.612 1320.6Z" fill="#5552FA" fill-opacity="0.1"/>
<path d="M779.262 1081.77C746.695 1081.77 720.294 1108.17 720.294 1140.74C720.294 1173.3 746.695 1199.71 779.262 1199.71C811.83 1199.71 838.23 1173.3 838.23 1140.74C838.23 1108.17 811.83 1081.77 779.262 1081.77Z" fill="#494274"/>
<path d="M960 960H899.853C866.634 960 839.705 987.061 839.705 1020.44C839.705 1053.82 866.634 1080.88 899.853 1080.88C933.071 1080.88 960 1053.82 960 1020.44V960Z" fill="#F08080"/>
<rect width="122.654" height="122.654" transform="matrix(0 -1 -1 0 901.031 1381.62)" fill="#5552FA" fill-opacity="0.1"/>
<path d="M892.27 1319.4L839.396 1266.52L786.523 1319.4L839.396 1372.27L892.27 1319.4Z" fill="#F08080"/>
<path d="M937.002 1417V1344.47C896.944 1344.47 864.471 1376.94 864.471 1417L937.002 1417Z" fill="#494274"/>
<path d="M742.997 1417H815.527C815.527 1376.94 783.054 1344.47 742.997 1344.47V1417Z" fill="#494274"/>
<path d="M742.997 1224.77V1297.3C783.054 1297.3 815.527 1264.82 815.527 1224.77H742.997Z" fill="#494274"/>
<path d="M937.002 1224.77H864.471C864.471 1264.82 896.944 1297.3 937.002 1297.3L937.002 1224.77Z" fill="#494274"/>
<path d="M205.316 1560.82L120.127 1475.69L34.938 1560.82L120.127 1645.94L205.316 1560.82Z" fill="#FF9900" fill-opacity="0.1"/>
<path d="M150.459 1591.13V1530.51H89.7952L89.7952 1591.13H150.459Z" fill="#F08080"/>
<path d="M960 1080C960 1146.27 1013.73 1200 1080 1200C1146.27 1200 1200 1146.27 1200 1080V960H1080C1013.73 960 960 1013.73 960 1080Z" fill="#5552FA" fill-opacity="0.1"/>
<path d="M1056.48 1031.76C1056.48 1071.39 1088.61 1103.52 1128.24 1103.52C1167.87 1103.52 1200 1071.39 1200 1031.76V960H1128.24C1088.61 960 1056.48 992.128 1056.48 1031.76Z" fill="#FF9900" fill-opacity="0.1"/>
<path d="M1005.53 1080C1005.53 1120.46 1038.33 1153.27 1078.79 1153.27C1119.26 1153.27 1152.06 1120.46 1152.06 1080C1152.06 1039.54 1119.26 1006.73 1078.79 1006.73C1038.33 1006.73 1005.53 1039.54 1005.53 1080Z" fill="#F08080"/>
<path d="M1035.9 1080C1035.9 1103.69 1055.11 1122.89 1078.79 1122.89C1102.48 1122.89 1121.68 1103.69 1121.68 1080C1121.68 1056.31 1102.48 1037.11 1078.79 1037.11C1055.11 1037.11 1035.9 1056.31 1035.9 1080Z" fill="#FF9900" fill-opacity="0.1"/>
<path d="M1079.4 1200H960V1319.4C960 1386 1014 1440 1080.6 1440H1200V1320.6C1200 1254 1146 1200 1079.4 1200Z" fill="#F08080"/>
<path d="M1080 1251.86C1041.03 1251.86 1009.45 1283.45 1009.45 1322.41C1009.45 1361.38 1041.03 1392.96 1080 1392.96H1150.55V1322.41C1150.55 1283.45 1118.97 1251.86 1080 1251.86Z" fill="#FF9900" fill-opacity="0.1"/>
<path d="M1079.4 1680H960V1560.6C960 1494 1014 1440 1080.6 1440H1200V1559.4C1200 1626 1146 1680 1079.4 1680Z" fill="#494274"/>
<path d="M1080 1628.14C1041.03 1628.14 1009.45 1596.55 1009.45 1557.59C1009.45 1518.62 1041.03 1487.04 1080 1487.04H1150.55V1557.59C1150.55 1596.55 1118.97 1628.14 1080 1628.14Z" fill="#FF9900" fill-opacity="0.1"/>
<path d="M480 1560C480 1493.73 426.274 1440 360 1440C293.726 1440 240 1493.73 240 1560L240 1680H360C426.274 1680 480 1626.27 480 1560Z" fill="#5552FA" fill-opacity="0.1"/>
<path d="M311.759 1680C351.39 1680 383.518 1647.87 383.518 1608.24V1608.24C383.518 1568.61 351.39 1536.48 311.759 1536.48V1536.48C272.127 1536.48 240 1568.61 240 1608.24V1680H311.759Z" fill="#494274"/>
<path d="M434.473 1560C434.473 1519.54 401.67 1486.73 361.206 1486.73C320.742 1486.73 287.94 1519.54 287.94 1560C287.94 1600.46 320.742 1633.27 361.206 1633.27C401.67 1633.27 434.473 1600.46 434.473 1560Z" fill="#F08080"/>
<path d="M404.096 1560C404.096 1536.31 384.893 1517.11 361.206 1517.11C337.519 1517.11 318.317 1536.31 318.317 1560C318.317 1583.69 337.519 1602.89 361.206 1602.89C384.893 1602.89 404.096 1583.69 404.096 1560Z" fill="#FF9900" fill-opacity="0.1"/>
<path d="M499.508 360.294C499.508 415.984 544.632 461.13 600.296 461.13C655.96 461.13 701.084 415.984 701.084 360.294C701.084 304.605 655.96 259.459 600.296 259.459C544.632 259.459 499.508 304.605 499.508 360.294Z" fill="#5552FA" fill-opacity="0.1"/>
<path d="M720 480C654.052 480 600.591 426.67 600.591 360.885C666.539 360.885 720 414.215 720 480Z" fill="#494274"/>
<path d="M604.069 359.115H600.591V355.646C600.591 291.776 652.495 240 716.522 240H720V243.469C720 307.339 668.096 359.115 604.069 359.115Z" fill="#F08080"/>
<path d="M599.408 355.646V359.115H595.93C531.903 359.115 479.999 307.339 479.999 243.469V240H483.477C547.504 240 599.408 291.777 599.408 355.646Z" fill="#494274"/>
<path d="M483.477 480H479.999V476.531C479.999 412.661 531.903 360.885 595.93 360.885H599.408V364.354C599.408 428.223 547.504 480 483.477 480Z" fill="#F08080"/>
<path d="M499.73 1080.03C499.73 1135.72 544.875 1180.87 600.565 1180.87C656.255 1180.87 701.4 1135.72 701.4 1080.03C701.4 1024.34 656.255 979.199 600.565 979.199C544.875 979.199 499.73 1024.34 499.73 1080.03Z" fill="#5552FA" fill-opacity="0.1"/>
<path d="M480 1076.5C480 1012.16 532.161 960 596.505 960H600V963.495C600 1027.84 547.839 1080 483.495 1080H480V1076.5Z" fill="#494274"/>
<path d="M600 1196.5V1200H596.505C532.161 1200 480 1147.84 480 1083.5V1080H483.495C547.839 1080 600 1132.16 600 1196.5Z" fill="#F08080"/>
<path d="M600 1083.5V1080H603.495C667.839 1080 720 1132.16 720 1196.5V1200H716.505C652.161 1200 600 1147.84 600 1083.5Z" fill="#494274"/>
<path d="M720 963.495C720 1027.84 667.839 1080 603.495 1080H600V1076.5C600 1012.16 652.161 960 716.505 960H720V963.495Z" fill="#F08080"/>
<path d="M359.965 19.7296C304.276 19.7296 259.13 64.8752 259.13 120.565C259.13 176.255 304.276 221.4 359.965 221.4C415.655 221.4 460.801 176.255 460.801 120.565C460.801 64.8752 415.655 19.7296 359.965 19.7296Z" fill="#5552FA" fill-opacity="0.1"/>
<path d="M363.495 0C427.839 0 480 52.161 480 116.505V120L476.505 120C412.161 120 360 67.839 360 3.49515V0H363.495Z" fill="#494274"/>
<path d="M243.495 120H240V116.505C240 52.161 292.161 0 356.505 0H360V3.49515C360 67.839 307.839 120 243.495 120Z" fill="#F08080"/>
<path d="M356.505 120H360V123.495C360 187.839 307.839 240 243.495 240H240V236.505C240 172.161 292.161 120 356.505 120Z" fill="#494274"/>
<path d="M476.505 240C412.161 240 360 187.839 360 123.495V120H363.495C427.839 120 480 172.161 480 236.505V240H476.505Z" fill="#F08080"/>
<path d="M1200 720H960V480C1092.55 480 1200 587.452 1200 720Z" fill="#494274"/>
<path d="M1096.22 720.001H960.001V583.449C1035.23 583.449 1096.22 644.586 1096.22 720.001Z" fill="#5552FA" fill-opacity="0.1"/>
<path d="M1022.51 720H960V657.34C994.521 657.34 1022.51 685.394 1022.51 720Z" fill="#FF9900" fill-opacity="0.1"/>
<path d="M480 1680L480 1440H720C720 1572.55 612.548 1680 480 1680Z" fill="#494274"/>
<path d="M479.999 1576.22L479.999 1440H616.551C616.551 1515.23 555.414 1576.22 479.999 1576.22Z" fill="#5552FA" fill-opacity="0.1"/>
<path d="M480 1502.51V1440H542.66C542.66 1474.52 514.606 1502.51 480 1502.51Z" fill="#FF9900" fill-opacity="0.1"/>
<path d="M480 0L720 0L720 240C587.452 240 480 132.548 480 0Z" fill="#F08080"/>
<path d="M583.449 0.000579834L720.001 0.000579834V136.217C644.586 136.217 583.449 75.2307 583.449 0.000579834Z" fill="#5552FA" fill-opacity="0.1"/>
<path d="M657.34 -0.000282288L720 -0.000282288V62.5059C685.394 62.5059 657.34 34.5209 657.34 -0.000282288Z" fill="#FF9900" fill-opacity="0.1"/>
<path d="M720 1440H480L480 1200C612.548 1200 720 1307.45 720 1440Z" fill="#F08080"/>
<path d="M616.551 1440H479.999L479.999 1303.78C555.414 1303.78 616.551 1364.77 616.551 1440Z" fill="#5552FA" fill-opacity="0.1"/>
<path d="M542.66 1440H480V1377.49C514.606 1377.49 542.66 1405.48 542.66 1440Z" fill="#FF9900" fill-opacity="0.1"/>
<path d="M1200 120.6C1200 186.874 1146.27 240.6 1080 240.6C1013.73 240.6 960 186.874 960 120.6C960 54.3254 1013.73 0.599609 1080 0.599609C1146.27 0.599609 1200 54.3254 1200 120.6Z" fill="#F08080"/>
<path d="M1151.65 121.189C1151.65 161.084 1119.31 193.425 1079.41 193.425C1039.52 193.425 1007.17 161.084 1007.17 121.189C1007.17 81.2942 1039.52 48.9531 1079.41 48.9531C1119.31 48.9531 1151.65 81.2942 1151.65 121.189Z" fill="#5552FA" fill-opacity="0.1"/>
<path d="M1116.86 122.368C1116.86 143.7 1099.56 160.992 1078.23 160.992C1056.9 160.992 1039.61 143.7 1039.61 122.368C1039.61 101.037 1056.9 83.7441 1078.23 83.7441C1099.56 83.7441 1116.86 101.037 1116.86 122.368Z" fill="#FF9900" fill-opacity="0.1"/>
<path d="M1105.65 240.6L959.999 240.6V94.9492C1040.44 94.9492 1105.65 160.159 1105.65 240.6Z" fill="#494274"/>
<path d="M240 1320C240 1386.27 186.274 1440 120 1440C53.7258 1440 0 1386.27 0 1320C0 1253.73 53.7258 1200 120 1200C186.274 1200 240 1253.73 240 1320Z" fill="#F08080"/>
<path d="M191.646 1320.59C191.646 1360.48 159.305 1392.83 119.411 1392.83C79.5158 1392.83 47.1747 1360.48 47.1747 1320.59C47.1747 1280.69 79.5158 1248.35 119.411 1248.35C159.305 1248.35 191.646 1280.69 191.646 1320.59Z" fill="#5552FA" fill-opacity="0.1"/>
<path d="M156.855 1321.77C156.855 1343.1 139.563 1360.39 118.231 1360.39C96.8999 1360.39 79.6073 1343.1 79.6073 1321.77C79.6073 1300.44 96.8999 1283.14 118.231 1283.14C139.563 1283.14 156.855 1300.44 156.855 1321.77Z" fill="#FF9900" fill-opacity="0.1"/>
<path d="M145.65 1440H-0.000717163L-0.000717163 1294.35C80.4402 1294.35 145.65 1359.56 145.65 1440Z" fill="#494274"/>
<path d="M960.6 299.567C960.6 267 987.001 240.599 1019.57 240.599C1052.13 240.599 1078.54 267 1078.54 299.567C1078.54 332.134 1052.13 358.535 1019.57 358.535C987.001 358.535 960.6 332.134 960.6 299.567Z" fill="#494274"/>
<path d="M1082.66 419.272C1082.66 386.705 1109.06 360.304 1141.63 360.304C1174.2 360.304 1200.6 386.705 1200.6 419.272C1200.6 451.839 1174.2 478.24 1141.63 478.24C1109.06 478.24 1082.66 451.839 1082.66 419.272Z" fill="#494274"/>
<path d="M960.6 480.6V420.157C960.6 386.776 987.661 359.715 1021.04 359.715C1054.42 359.715 1081.48 386.776 1081.48 420.157C1081.48 453.539 1054.42 480.6 1021.04 480.6H960.6Z" fill="#F08080"/>
<path d="M420.738 601.77C453.305 601.77 479.706 628.17 479.706 660.738C479.706 693.305 453.305 719.706 420.738 719.706C388.17 719.706 361.77 693.305 361.77 660.738C361.77 628.17 388.17 601.77 420.738 601.77Z" fill="#494274"/>
<path d="M240 480H300.147C333.366 480 360.295 507.061 360.295 540.442C360.295 573.824 333.366 600.885 300.147 600.885C266.929 600.885 240 573.824 240 540.442L240 480Z" fill="#F08080"/>
<path d="M122.064 58.9675C122.064 26.4003 148.465 -0.000572205 181.033 -0.000572205C213.6 -0.000572205 240.001 26.4003 240.001 58.9675C240.001 91.5346 213.6 117.936 181.033 117.936C148.465 117.936 122.064 91.5346 122.064 58.9675Z" fill="#494274"/>
<path d="M0 240L0 179.558C0 146.176 27.0609 119.115 60.4423 119.115C93.8236 119.115 120.885 146.176 120.885 179.558C120.885 212.939 93.8236 240 60.4423 240L0 240Z" fill="#F08080"/>
<rect x="298.969" y="901.621" width="122.654" height="122.654" transform="rotate(-90 298.969 901.621)" fill="#5552FA" fill-opacity="0.1"/>
<path d="M307.73 839.396L360.604 786.523L413.477 839.396L360.604 892.27L307.73 839.396Z" fill="#F08080"/>
<path d="M262.998 937.002V864.471C303.056 864.471 335.529 896.944 335.529 937.002L262.998 937.002Z" fill="#494274"/>
<path d="M457.003 937.002H384.473C384.473 896.944 416.946 864.471 457.003 864.471V937.002Z" fill="#494274"/>
<path d="M457.003 744.766V817.297C416.946 817.297 384.473 784.824 384.473 744.766H457.003Z" fill="#494274"/>
<path d="M262.998 744.766H335.529C335.529 784.824 303.056 817.297 262.998 817.297L262.998 744.766Z" fill="#494274"/>
<path d="M796.977 120.816L839.872 77.9522L882.768 120.816L839.872 163.681L796.977 120.816Z" fill="#5552FA" fill-opacity="0.1"/>
<rect x="1090.25" y="828.543" width="74.7739" height="74.7739" transform="rotate(-90 1090.25 828.543)" fill="#5552FA" fill-opacity="0.1"/>
<rect x="996.18" y="828.543" width="74.7739" height="74.7739" transform="rotate(-90 996.18 828.543)" fill="#5552FA" fill-opacity="0.1"/>
<rect x="1090.25" y="925.025" width="74.7739" height="74.7739" transform="rotate(-90 1090.25 925.025)" fill="#5552FA" fill-opacity="0.1"/>
<rect x="996.18" y="925.025" width="74.7739" height="74.7739" transform="rotate(-90 996.18 925.025)" fill="#5552FA" fill-opacity="0.1"/>
<rect x="1110.75" y="808.041" width="34.9749" height="34.9749" transform="rotate(-90 1110.75 808.041)" fill="#FF9900" fill-opacity="0.1"/>
<rect x="1016.68" y="808.041" width="34.9749" height="34.9749" transform="rotate(-90 1016.68 808.041)" fill="#FF9900" fill-opacity="0.1"/>
<rect x="1110.75" y="904.523" width="34.9749" height="34.9749" transform="rotate(-90 1110.75 904.523)" fill="#FF9900" fill-opacity="0.1"/>
<rect x="1016.68" y="904.523" width="34.9749" height="34.9749" transform="rotate(-90 1016.68 904.523)" fill="#FF9900" fill-opacity="0.1"/>
<path d="M514.684 601.416L599.873 516.289L685.062 601.416L599.873 686.543L514.684 601.416Z" fill="#FF9900" fill-opacity="0.1"/>
<path d="M569.541 631.727V571.107H630.205V631.727H569.541Z" fill="#F08080"/>
<path d="M240 600C240 666.274 186.274 720 120 720C53.7258 720 0 666.274 0 600L0 480L120 480C186.274 480 240 533.726 240 600Z" fill="#5552FA" fill-opacity="0.1"/>
<path d="M143.518 551.759C143.518 591.39 111.39 623.518 71.7588 623.518C32.1275 623.518 -1.52588e-05 591.39 -1.52588e-05 551.759L-1.52588e-05 480H71.7588C111.39 480 143.518 512.128 143.518 551.759Z" fill="#FF9900" fill-opacity="0.1"/>
<path d="M194.473 600.001C194.473 640.465 161.67 673.267 121.206 673.267C80.7424 673.267 47.94 640.465 47.94 600.001C47.94 559.537 80.7424 526.734 121.206 526.734C161.67 526.734 194.473 559.537 194.473 600.001Z" fill="#F08080"/>
<path d="M164.096 600.001C164.096 623.688 144.893 642.89 121.206 642.89C97.5191 642.89 78.3168 623.688 78.3168 600.001C78.3168 576.314 97.5191 557.111 121.206 557.111C144.893 557.111 164.096 576.314 164.096 600.001Z" fill="#FF9900" fill-opacity="0.1"/>
<path d="M480 360L480 480L360 480C293.726 480 240 426.274 240 360L240 240L360 240C426.274 240 480 293.726 480 360Z" fill="#F08080"/>
<path d="M428.141 360C428.141 398.965 396.553 430.553 357.588 430.553C318.623 430.553 287.035 398.965 287.035 360V289.447L357.588 289.447C396.553 289.447 428.141 321.035 428.141 360Z" fill="#FF9900" fill-opacity="0.1"/>
<path d="M480 432.604V480.604H432C392.235 480.604 360 448.368 360 408.604V360.604L408 360.604C447.765 360.604 480 392.839 480 432.604Z" fill="#5552FA" fill-opacity="0.1"/>
<path d="M120.603 720L240 720L240 839.397C240 906.004 186.004 960 119.397 960H0L0 840.603C0 773.996 53.9958 720 120.603 720Z" fill="#F08080"/>
<path d="M120 771.859C158.965 771.859 190.553 803.447 190.553 842.412C190.553 881.377 158.965 912.965 120 912.965H49.4473L49.4473 842.412C49.4473 803.447 81.0348 771.859 120 771.859Z" fill="#FF9900" fill-opacity="0.1"/>
<path d="M480 840C480 773.726 533.726 720 600 720C666.274 720 720 773.726 720 840V960L600 960C533.726 960 480 906.274 480 840Z" fill="#5552FA" fill-opacity="0.1"/>
<path d="M648.241 960C608.61 960 576.482 927.872 576.482 888.241V888.241C576.482 848.61 608.61 816.482 648.241 816.482V816.482C687.873 816.482 720 848.61 720 888.241V960L648.241 960Z" fill="#494274"/>
<path d="M525.527 839.999C525.527 799.535 558.33 766.733 598.794 766.733C639.258 766.733 672.06 799.535 672.06 839.999C672.06 880.463 639.258 913.266 598.794 913.266C558.33 913.266 525.527 880.463 525.527 839.999Z" fill="#F08080"/>
<path d="M555.904 839.999C555.904 816.312 575.107 797.11 598.794 797.11C622.481 797.11 641.683 816.312 641.683 839.999C641.683 863.686 622.481 882.889 598.794 882.889C575.107 882.889 555.904 863.686 555.904 839.999Z" fill="#FF9900" fill-opacity="0.1"/>
<path d="M739.508 1560.29C739.508 1615.98 784.632 1661.13 840.296 1661.13C895.96 1661.13 941.084 1615.98 941.084 1560.29C941.084 1504.6 895.96 1459.46 840.296 1459.46C784.632 1459.46 739.508 1504.6 739.508 1560.29Z" fill="#5552FA" fill-opacity="0.1"/>
<path d="M960 1680C894.052 1680 840.591 1626.67 840.591 1560.88C906.539 1560.88 960 1614.21 960 1680Z" fill="#494274"/>
<path d="M844.069 1559.12H840.591V1555.65C840.591 1491.78 892.495 1440 956.522 1440H960V1443.47C960 1507.34 908.096 1559.12 844.069 1559.12Z" fill="#F08080"/>
<path d="M839.408 1555.65V1559.12H835.93C771.903 1559.12 719.999 1507.34 719.999 1443.47V1440H723.477C787.504 1440 839.408 1491.78 839.408 1555.65Z" fill="#494274"/>
<path d="M723.477 1680H719.999V1676.53C719.999 1612.66 771.903 1560.88 835.93 1560.88H839.408V1564.35C839.408 1628.22 787.504 1680 723.477 1680Z" fill="#F08080"/>
<path d="M960 720H720V480L960 720Z" fill="#F08080"/>
<path d="M960 480L720 720V480L960 480Z" fill="#5552FA" fill-opacity="0.1"/>
<path d="M-0.000389099 420.6L-0.000389099 299.4L60.5996 360L-0.000389099 420.6Z" fill="#F08080"/>
<path d="M0 240L240 240L240 480L0 240Z" fill="#5552FA" fill-opacity="0.1"/>
<path d="M0 480L240 240L240 480L0 480Z" fill="#494274"/>
<path d="M240 960.6L480 960.6L480 1200.6L240 960.6Z" fill="#F08080"/>
<path d="M240 1200.6L480 960.6L480 1200.6H240Z" fill="#5552FA" fill-opacity="0.1"/>
<path d="M240 1200.6H0L0 960.6L240 1200.6Z" fill="#F08080"/>
<path d="M240 960.6L0 1200.6L0 960.6H240Z" fill="#5552FA" fill-opacity="0.1"/>
</g>
</g>
<defs>
<clipPath id="clip0">
<rect width="1600" height="1200" fill="white" transform="translate(0 1600) rotate(-90)"/>
</clipPath>
</defs>
</svg>
