<svg width="1600" height="1200" viewBox="0 0 1600 1200" fill="none" xmlns="http://www.w3.org/2000/svg">
<g clip-path="url(#clip0)">
<mask id="mask0" mask-type="alpha" maskUnits="userSpaceOnUse" x="0" y="0" width="1600" height="1200">
<rect x="1600" y="1200" width="1600" height="1200" transform="rotate(-180 1600 1200)" fill="#FFFFFE"/>
</mask>
<g mask="url(#mask0)">
<path d="M1239.4 720C1173.13 720 1119.4 773.726 1119.4 840C1119.4 906.274 1173.13 960 1239.4 960C1305.67 960 1359.4 906.274 1359.4 840C1359.4 773.726 1305.67 720 1239.4 720Z" fill="#494274" fill-opacity="0.2"/>
<path d="M1238.8 768.956C1199.9 768.956 1168.36 800.497 1168.36 839.404C1168.36 878.311 1199.9 909.852 1238.8 909.852C1277.71 909.852 1309.25 878.311 1309.25 839.404C1309.25 800.497 1277.71 768.956 1238.8 768.956Z" fill="#FF9900" fill-opacity="0.1"/>
<path d="M1238.8 802.388C1218.36 802.388 1201.79 818.96 1201.79 839.403C1201.79 859.846 1218.36 876.418 1238.8 876.418C1259.25 876.418 1275.82 859.846 1275.82 839.403C1275.82 818.96 1259.25 802.388 1238.8 802.388Z" fill="#F08080" fill-opacity="0.2"/>
<path d="M759.404 768.956C720.497 768.956 688.956 800.497 688.956 839.404C688.956 878.311 720.497 909.852 759.404 909.852C798.311 909.852 829.852 878.311 829.852 839.404C829.852 800.497 798.311 768.956 759.404 768.956Z" fill="#FF9900" fill-opacity="0.1"/>
<path d="M759.403 802.388C738.96 802.388 722.388 818.96 722.388 839.403C722.388 859.846 738.96 876.418 759.403 876.418C779.846 876.418 796.418 859.846 796.418 839.403C796.418 818.96 779.846 802.388 759.403 802.388Z" fill="#5552FA" fill-opacity="0.1"/>
<path d="M279.404 431.044C240.497 431.044 208.956 399.503 208.956 360.596C208.956 321.689 240.497 290.148 279.404 290.148C318.311 290.148 349.852 321.689 349.852 360.596C349.852 399.503 318.311 431.044 279.404 431.044Z" fill="#FF9900" fill-opacity="0.1"/>
<path d="M279.403 397.612C258.96 397.612 242.388 381.04 242.388 360.597C242.388 340.154 258.96 323.582 279.403 323.582C299.846 323.582 316.418 340.154 316.418 360.597C316.418 381.04 299.846 397.612 279.403 397.612Z" fill="#5552FA" fill-opacity="0.1"/>
<path d="M518.23 779.262C518.23 746.695 491.83 720.294 459.262 720.294C426.695 720.294 400.294 746.695 400.294 779.262C400.294 811.83 426.695 838.23 459.262 838.23C491.83 838.23 518.23 811.83 518.23 779.262Z" fill="#494274" fill-opacity="0.2"/>
<path d="M640 960V899.853C640 866.634 612.939 839.705 579.558 839.705C546.176 839.705 519.115 866.634 519.115 899.853C519.115 933.071 546.176 960 579.558 960H640Z" fill="#F08080" fill-opacity="0.2"/>
<rect width="122.654" height="122.654" transform="matrix(1 0 0 -1 218.379 901.031)" fill="#5552FA" fill-opacity="0.1"/>
<path d="M280.604 892.27L333.477 839.396L280.604 786.523L227.73 839.396L280.604 892.27Z" fill="#F08080" fill-opacity="0.2"/>
<path d="M182.998 937.002H255.529C255.529 896.944 223.056 864.471 182.998 864.471L182.998 937.002Z" fill="#494274" fill-opacity="0.2"/>
<path d="M182.998 742.997L182.998 815.527C223.056 815.527 255.529 783.054 255.529 742.997H182.998Z" fill="#494274" fill-opacity="0.2"/>
<path d="M375.234 742.997H302.703C302.703 783.054 335.176 815.527 375.234 815.527V742.997Z" fill="#494274" fill-opacity="0.2"/>
<path d="M375.234 937.002V864.471C335.176 864.471 302.703 896.944 302.703 937.002L375.234 937.002Z" fill="#494274" fill-opacity="0.2"/>
<path d="M39.1836 205.316L124.311 120.127L39.1836 34.938L-45.9434 120.127L39.1836 205.316Z" fill="#FF9900" fill-opacity="0.1"/>
<path d="M8.87305 150.459H69.4926V89.7952H8.87305L8.87305 150.459Z" fill="#F08080" fill-opacity="0.2"/>
<path d="M520 960C453.726 960 400 1013.73 400 1080C400 1146.27 453.726 1200 520 1200H640V1080C640 1013.73 586.274 960 520 960Z" fill="#5552FA" fill-opacity="0.1"/>
<path d="M568.241 1056.48C528.61 1056.48 496.482 1088.61 496.482 1128.24C496.482 1167.87 528.61 1200 568.241 1200H640V1128.24C640 1088.61 607.872 1056.48 568.241 1056.48Z" fill="#FF9900" fill-opacity="0.1"/>
<path d="M519.999 1005.53C479.535 1005.53 446.733 1038.33 446.733 1078.79C446.733 1119.26 479.535 1152.06 519.999 1152.06C560.463 1152.06 593.266 1119.26 593.266 1078.79C593.266 1038.33 560.463 1005.53 519.999 1005.53Z" fill="#F08080" fill-opacity="0.2"/>
<path d="M519.999 1035.9C496.312 1035.9 477.11 1055.11 477.11 1078.79C477.11 1102.48 496.312 1121.68 519.999 1121.68C543.686 1121.68 562.889 1102.48 562.889 1078.79C562.889 1055.11 543.686 1035.9 519.999 1035.9Z" fill="#FF9900" fill-opacity="0.1"/>
<path d="M400 1079.4V960H280.603C213.996 960 160 1014 160 1080.6V1200H279.397C346.004 1200 400 1146 400 1079.4Z" fill="#F08080" fill-opacity="0.2"/>
<path d="M348.141 1080C348.141 1041.03 316.553 1009.45 277.588 1009.45C238.623 1009.45 207.035 1041.03 207.035 1080V1150.55H277.588C316.553 1150.55 348.141 1118.97 348.141 1080Z" fill="#FF9900" fill-opacity="0.1"/>
<path d="M-80 1079.4L-80 960H39.397C106.004 960 160 1014 160 1080.6L160 1200H40.603C-26.0042 1200 -80 1146 -80 1079.4Z" fill="#494274" fill-opacity="0.2"/>
<path d="M-28.1406 1080C-28.1406 1041.03 3.44693 1009.45 42.4121 1009.45C81.3774 1009.45 112.965 1041.03 112.965 1080L112.965 1150.55H42.4121C3.44693 1150.55 -28.1406 1118.97 -28.1406 1080Z" fill="#FF9900" fill-opacity="0.1"/>
<path d="M40 480C106.274 480 160 426.274 160 360C160 293.726 106.274 240 40 240L-80 240L-80 360C-80 426.274 -26.2742 480 40 480Z" fill="#5552FA" fill-opacity="0.1"/>
<path d="M-80 311.759C-80 351.39 -47.8725 383.518 -8.2412 383.518V383.518C31.3901 383.518 63.5176 351.39 63.5176 311.759V311.759C63.5176 272.127 31.3901 240 -8.2412 240H-80V311.759Z" fill="#494274" fill-opacity="0.2"/>
<path d="M40.0007 434.473C80.4646 434.473 113.267 401.67 113.267 361.206C113.267 320.742 80.4646 287.94 40.0007 287.94C-0.463169 287.94 -33.2656 320.742 -33.2656 361.206C-33.2656 401.67 -0.463169 434.473 40.0007 434.473Z" fill="#F08080" fill-opacity="0.2"/>
<path d="M40.0008 404.096C63.688 404.096 82.8902 384.893 82.8902 361.206C82.8902 337.519 63.688 318.317 40.0008 318.317C16.3136 318.317 -2.88867 337.519 -2.88867 361.206C-2.88867 384.893 16.3136 404.096 40.0008 404.096Z" fill="#FF9900" fill-opacity="0.1"/>
<path d="M1239.71 499.508C1184.02 499.508 1138.87 544.632 1138.87 600.296C1138.87 655.96 1184.02 701.084 1239.71 701.084C1295.4 701.084 1340.54 655.96 1340.54 600.296C1340.54 544.632 1295.4 499.508 1239.71 499.508Z" fill="#5552FA" fill-opacity="0.1"/>
<path d="M1120 720C1120 654.052 1173.33 600.591 1239.12 600.591C1239.12 666.539 1185.79 720 1120 720Z" fill="#494274" fill-opacity="0.2"/>
<path d="M1240.88 604.069V600.591H1244.35C1308.22 600.591 1360 652.495 1360 716.522V720H1356.53C1292.66 720 1240.88 668.096 1240.88 604.069Z" fill="#F08080" fill-opacity="0.2"/>
<path d="M1244.35 599.408H1240.88V595.93C1240.88 531.903 1292.66 479.999 1356.53 479.999H1360V483.477C1360 547.504 1308.22 599.408 1244.35 599.408Z" fill="#494274" fill-opacity="0.2"/>
<path d="M1120 483.477V479.999H1123.47C1187.34 479.999 1239.12 531.903 1239.12 595.93V599.408H1235.65C1171.78 599.408 1120 547.504 1120 483.477Z" fill="#F08080" fill-opacity="0.2"/>
<path d="M519.965 499.73C464.276 499.73 419.13 544.875 419.13 600.565C419.13 656.255 464.276 701.4 519.965 701.4C575.655 701.4 620.801 656.255 620.801 600.565C620.801 544.875 575.655 499.73 519.965 499.73Z" fill="#5552FA" fill-opacity="0.1"/>
<path d="M523.495 480C587.839 480 640 532.161 640 596.505V600H636.505C572.161 600 520 547.839 520 483.495V480H523.495Z" fill="#494274" fill-opacity="0.2"/>
<path d="M403.495 600H400V596.505C400 532.161 452.161 480 516.505 480H520V483.495C520 547.839 467.839 600 403.495 600Z" fill="#F08080" fill-opacity="0.2"/>
<path d="M516.505 600H520V603.495C520 667.839 467.839 720 403.495 720H400V716.505C400 652.161 452.161 600 516.505 600Z" fill="#494274" fill-opacity="0.2"/>
<path d="M636.505 720C572.161 720 520 667.839 520 603.495V600H523.495C587.839 600 640 652.161 640 716.505V720H636.505Z" fill="#F08080" fill-opacity="0.2"/>
<path d="M1580.27 359.965C1580.27 304.276 1535.12 259.13 1479.43 259.13C1423.75 259.13 1378.6 304.276 1378.6 359.965C1378.6 415.655 1423.75 460.801 1479.43 460.801C1535.12 460.801 1580.27 415.655 1580.27 359.965Z" fill="#5552FA" fill-opacity="0.1"/>
<path d="M1600 363.495C1600 427.839 1547.84 480 1483.5 480H1480V476.505C1480 412.161 1532.16 360 1596.5 360H1600V363.495Z" fill="#494274" fill-opacity="0.2"/>
<path d="M1480 243.495V240H1483.5C1547.84 240 1600 292.161 1600 356.505V360H1596.5C1532.16 360 1480 307.839 1480 243.495Z" fill="#F08080" fill-opacity="0.2"/>
<path d="M1480 356.505V360H1476.5C1412.16 360 1360 307.839 1360 243.495V240H1363.5C1427.84 240 1480 292.161 1480 356.505Z" fill="#494274" fill-opacity="0.2"/>
<path d="M1360 476.505C1360 412.161 1412.16 360 1476.5 360H1480V363.495C1480 427.839 1427.84 480 1363.5 480H1360V476.505Z" fill="#F08080" fill-opacity="0.2"/>
<path d="M880 1200V960H1120C1120 1092.55 1012.55 1200 880 1200Z" fill="#494274" fill-opacity="0.2"/>
<path d="M879.999 1096.22V960.001H1016.55C1016.55 1035.23 955.414 1096.22 879.999 1096.22Z" fill="#5552FA" fill-opacity="0.1"/>
<path d="M880 1022.51V960H942.66C942.66 994.521 914.606 1022.51 880 1022.51Z" fill="#FF9900" fill-opacity="0.1"/>
<path d="M-80 480L160 480L160 720C27.4517 720 -80 612.548 -80 480Z" fill="#494274" fill-opacity="0.2"/>
<path d="M23.7832 479.999H159.999L159.999 616.551C84.7693 616.551 23.7832 555.414 23.7832 479.999Z" fill="#5552FA" fill-opacity="0.1"/>
<path d="M97.4941 480H160L160 542.66C125.479 542.66 97.4941 514.606 97.4941 480Z" fill="#FF9900" fill-opacity="0.1"/>
<path d="M1600 480V720H1360C1360 587.452 1467.45 480 1600 480Z" fill="#F08080" fill-opacity="0.2"/>
<path d="M1600 583.449V720.001H1463.78C1463.78 644.586 1524.77 583.449 1600 583.449Z" fill="#5552FA" fill-opacity="0.1"/>
<path d="M1600 657.34V720H1537.49C1537.49 685.394 1565.48 657.34 1600 657.34Z" fill="#FF9900" fill-opacity="0.1"/>
<path d="M160 720L160 480L400 480C400 612.548 292.548 720 160 720Z" fill="#F08080" fill-opacity="0.2"/>
<path d="M160.001 616.551L160.001 479.999L296.217 479.999C296.217 555.414 235.231 616.551 160.001 616.551Z" fill="#5552FA" fill-opacity="0.1"/>
<path d="M160 542.66L160 480H222.506C222.506 514.606 194.521 542.66 160 542.66Z" fill="#FF9900" fill-opacity="0.1"/>
<path d="M1479.4 1200C1413.13 1200 1359.4 1146.27 1359.4 1080C1359.4 1013.73 1413.13 960 1479.4 960C1545.67 960 1599.4 1013.73 1599.4 1080C1599.4 1146.27 1545.67 1200 1479.4 1200Z" fill="#F08080" fill-opacity="0.2"/>
<path d="M1478.81 1151.65C1438.92 1151.65 1406.58 1119.31 1406.58 1079.41C1406.58 1039.52 1438.92 1007.17 1478.81 1007.17C1518.71 1007.17 1551.05 1039.52 1551.05 1079.41C1551.05 1119.31 1518.71 1151.65 1478.81 1151.65Z" fill="#5552FA" fill-opacity="0.1"/>
<path d="M1477.63 1116.86C1456.3 1116.86 1439.01 1099.56 1439.01 1078.23C1439.01 1056.9 1456.3 1039.61 1477.63 1039.61C1498.96 1039.61 1516.26 1056.9 1516.26 1078.23C1516.26 1099.56 1498.96 1116.86 1477.63 1116.86Z" fill="#FF9900" fill-opacity="0.1"/>
<path d="M1359.4 1105.65V959.999H1505.05C1505.05 1040.44 1439.84 1105.65 1359.4 1105.65Z" fill="#494274" fill-opacity="0.2"/>
<path d="M280 240C213.726 240 160 186.274 160 120C160 53.7258 213.726 0 280 0C346.274 0 400 53.7258 400 120C400 186.274 346.274 240 280 240Z" fill="#F08080" fill-opacity="0.2"/>
<path d="M279.411 191.646C239.516 191.646 207.175 159.305 207.175 119.411C207.175 79.5158 239.516 47.1747 279.411 47.1747C319.305 47.1747 351.646 79.5158 351.646 119.411C351.646 159.305 319.305 191.646 279.411 191.646Z" fill="#5552FA" fill-opacity="0.1"/>
<path d="M278.231 156.855C256.9 156.855 239.607 139.563 239.607 118.231C239.607 96.8999 256.9 79.6073 278.231 79.6073C299.563 79.6073 316.855 96.8999 316.855 118.231C316.855 139.563 299.563 156.855 278.231 156.855Z" fill="#FF9900" fill-opacity="0.1"/>
<path d="M159.999 145.65L159.999 -0.000717163L305.65 -0.000717163C305.65 80.4402 240.44 145.65 159.999 145.65Z" fill="#494274" fill-opacity="0.2"/>
<path d="M1300.43 960.6C1333 960.6 1359.4 987.001 1359.4 1019.57C1359.4 1052.13 1333 1078.54 1300.43 1078.54C1267.87 1078.54 1241.46 1052.13 1241.46 1019.57C1241.46 987.001 1267.87 960.6 1300.43 960.6Z" fill="#494274" fill-opacity="0.2"/>
<path d="M1180.73 1082.66C1213.29 1082.66 1239.7 1109.06 1239.7 1141.63C1239.7 1174.2 1213.29 1200.6 1180.73 1200.6C1148.16 1200.6 1121.76 1174.2 1121.76 1141.63C1121.76 1109.06 1148.16 1082.66 1180.73 1082.66Z" fill="#494274" fill-opacity="0.2"/>
<path d="M1119.4 960.6H1179.84C1213.22 960.6 1240.28 987.661 1240.28 1021.04C1240.28 1054.42 1213.22 1081.48 1179.84 1081.48C1146.46 1081.48 1119.4 1054.42 1119.4 1021.04V960.6Z" fill="#F08080" fill-opacity="0.2"/>
<path d="M998.23 420.738C998.23 453.305 971.83 479.706 939.262 479.706C906.695 479.706 880.294 453.305 880.294 420.738C880.294 388.17 906.695 361.77 939.262 361.77C971.83 361.77 998.23 388.17 998.23 420.738Z" fill="#494274" fill-opacity="0.2"/>
<path d="M1120 240V300.147C1120 333.366 1092.94 360.295 1059.56 360.295C1026.18 360.295 999.115 333.366 999.115 300.147C999.115 266.929 1026.18 240 1059.56 240H1120Z" fill="#F08080" fill-opacity="0.2"/>
<path d="M1541.03 122.064C1573.6 122.064 1600 148.465 1600 181.033C1600 213.6 1573.6 240.001 1541.03 240.001C1508.47 240.001 1482.06 213.6 1482.06 181.033C1482.06 148.465 1508.47 122.064 1541.03 122.064Z" fill="#494274" fill-opacity="0.2"/>
<path d="M1360 0L1420.44 0C1453.82 0 1480.88 27.0609 1480.88 60.4423C1480.88 93.8236 1453.82 120.885 1420.44 120.885C1387.06 120.885 1360 93.8236 1360 60.4423V0Z" fill="#F08080" fill-opacity="0.2"/>
<rect x="698.379" y="298.969" width="122.654" height="122.654" fill="#5552FA" fill-opacity="0.1"/>
<path d="M760.604 307.73L813.477 360.604L760.604 413.477L707.73 360.604L760.604 307.73Z" fill="#F08080" fill-opacity="0.2"/>
<path d="M662.998 262.998H735.529C735.529 303.056 703.056 335.529 662.998 335.529L662.998 262.998Z" fill="#494274" fill-opacity="0.2"/>
<path d="M662.998 457.003V384.473C703.056 384.473 735.529 416.946 735.529 457.003H662.998Z" fill="#494274" fill-opacity="0.2"/>
<path d="M855.234 457.003H782.703C782.703 416.946 815.176 384.473 855.234 384.473V457.003Z" fill="#494274" fill-opacity="0.2"/>
<path d="M855.234 262.998V335.529C815.176 335.529 782.703 303.056 782.703 262.998L855.234 262.998Z" fill="#494274" fill-opacity="0.2"/>
<path d="M1479.18 796.977L1522.05 839.872L1479.18 882.768L1436.32 839.872L1479.18 796.977Z" fill="#5552FA" fill-opacity="0.1"/>
<rect x="771.457" y="1090.25" width="74.7739" height="74.7739" fill="#5552FA" fill-opacity="0.1"/>
<rect x="771.457" y="996.18" width="74.7739" height="74.7739" fill="#5552FA" fill-opacity="0.1"/>
<rect x="674.975" y="1090.25" width="74.7739" height="74.7739" fill="#5552FA" fill-opacity="0.1"/>
<rect x="674.975" y="996.18" width="74.7739" height="74.7739" fill="#5552FA" fill-opacity="0.1"/>
<rect x="791.959" y="1110.75" width="34.9749" height="34.9749" fill="#FF9900" fill-opacity="0.1"/>
<rect x="791.959" y="1016.68" width="34.9749" height="34.9749" fill="#FF9900" fill-opacity="0.1"/>
<rect x="695.477" y="1110.75" width="34.9749" height="34.9749" fill="#FF9900" fill-opacity="0.1"/>
<rect x="695.477" y="1016.68" width="34.9749" height="34.9749" fill="#FF9900" fill-opacity="0.1"/>
<path d="M998.584 514.684L1083.71 599.873L998.584 685.062L913.457 599.873L998.584 514.684Z" fill="#FF9900" fill-opacity="0.1"/>
<path d="M968.273 569.541H1028.89V630.205H968.273V569.541Z" fill="#F08080" fill-opacity="0.2"/>
<path d="M1000 240C933.726 240 880 186.274 880 120C880 53.7258 933.726 0 1000 0L1120 0L1120 120C1120 186.274 1066.27 240 1000 240Z" fill="#5552FA" fill-opacity="0.1"/>
<path d="M1048.24 143.518C1008.61 143.518 976.482 111.39 976.482 71.7588C976.482 32.1275 1008.61 -1.52588e-05 1048.24 -1.52588e-05L1120 -1.52588e-05V71.7588C1120 111.39 1087.87 143.518 1048.24 143.518Z" fill="#FF9900" fill-opacity="0.1"/>
<path d="M999.999 194.473C959.535 194.473 926.733 161.67 926.733 121.206C926.733 80.7424 959.535 47.94 999.999 47.94C1040.46 47.94 1073.27 80.7424 1073.27 121.206C1073.27 161.67 1040.46 194.473 999.999 194.473Z" fill="#F08080" fill-opacity="0.2"/>
<path d="M999.999 164.096C976.312 164.096 957.11 144.893 957.11 121.206C957.11 97.5191 976.312 78.3168 999.999 78.3168C1023.69 78.3168 1042.89 97.5191 1042.89 121.206C1042.89 144.893 1023.69 164.096 999.999 164.096Z" fill="#FF9900" fill-opacity="0.1"/>
<path d="M1240 480L1120 480V360C1120 293.726 1173.73 240 1240 240L1360 240L1360 360C1360 426.274 1306.27 480 1240 480Z" fill="#F08080" fill-opacity="0.2"/>
<path d="M1240 428.141C1201.03 428.141 1169.45 396.553 1169.45 357.588C1169.45 318.623 1201.03 287.035 1240 287.035H1310.55V357.588C1310.55 396.553 1278.97 428.141 1240 428.141Z" fill="#FF9900" fill-opacity="0.1"/>
<path d="M1167.4 480L1119.4 480V432C1119.4 392.235 1151.63 360 1191.4 360H1239.4V408C1239.4 447.765 1207.16 480 1167.4 480Z" fill="#5552FA" fill-opacity="0.1"/>
<path d="M880 120.603V240L760.603 240C693.996 240 640 186.004 640 119.397V0L759.397 0C826.004 0 880 53.9958 880 120.603Z" fill="#F08080" fill-opacity="0.2"/>
<path d="M828.141 120C828.141 158.965 796.553 190.553 757.588 190.553C718.623 190.553 687.035 158.965 687.035 120V49.4473L757.588 49.4473C796.553 49.4473 828.141 81.0348 828.141 120Z" fill="#FF9900" fill-opacity="0.1"/>
<path d="M760 480C826.274 480 880 533.726 880 600C880 666.274 826.274 720 760 720H640L640 600C640 533.726 693.726 480 760 480Z" fill="#5552FA" fill-opacity="0.1"/>
<path d="M640 648.241C640 608.61 672.128 576.482 711.759 576.482V576.482C751.39 576.482 783.518 608.61 783.518 648.241V648.241C783.518 687.873 751.39 720 711.759 720H640L640 648.241Z" fill="#494274" fill-opacity="0.2"/>
<path d="M760.001 525.527C800.465 525.527 833.267 558.33 833.267 598.794C833.267 639.258 800.465 672.06 760.001 672.06C719.537 672.06 686.734 639.258 686.734 598.794C686.734 558.33 719.537 525.527 760.001 525.527Z" fill="#F08080" fill-opacity="0.2"/>
<path d="M760.001 555.904C783.688 555.904 802.89 575.107 802.89 598.794C802.89 622.481 783.688 641.683 760.001 641.683C736.314 641.683 717.111 622.481 717.111 598.794C717.111 575.107 736.314 555.904 760.001 555.904Z" fill="#FF9900" fill-opacity="0.1"/>
<path d="M39.7056 739.508C-15.9842 739.508 -61.1297 784.632 -61.1297 840.296C-61.1297 895.96 -15.9842 941.084 39.7056 941.084C95.3955 941.084 140.541 895.96 140.541 840.296C140.541 784.632 95.3955 739.508 39.7056 739.508Z" fill="#5552FA" fill-opacity="0.1"/>
<path d="M-80.0002 960C-80.0002 894.052 -26.6704 840.591 39.1152 840.591C39.1152 906.539 -14.2146 960 -80.0002 960Z" fill="#494274" fill-opacity="0.2"/>
<path d="M40.8848 844.069V840.591H44.3541C108.224 840.591 160 892.495 160 956.522V960H156.531C92.6613 960 40.8848 908.096 40.8848 844.069Z" fill="#F08080" fill-opacity="0.2"/>
<path d="M44.3539 839.408H40.8845V835.93C40.8845 771.903 92.661 719.999 156.531 719.999H160L160 723.477C160 787.504 108.223 839.408 44.3539 839.408Z" fill="#494274" fill-opacity="0.2"/>
<path d="M-80 723.477V719.999H-76.5306C-12.661 719.999 39.1155 771.903 39.1155 835.93V839.408H35.6461C-28.2235 839.408 -80 787.504 -80 723.477Z" fill="#F08080" fill-opacity="0.2"/>
<path d="M880 960V720H1120L880 960Z" fill="#F08080" fill-opacity="0.2"/>
<path d="M1120 960L880 720H1120V960Z" fill="#5552FA" fill-opacity="0.1"/>
<path d="M1179.4 -0.000389099L1300.6 -0.000389099L1240 60.5996L1179.4 -0.000389099Z" fill="#F08080" fill-opacity="0.2"/>
<path d="M1360 0V240L1120 240L1360 0Z" fill="#5552FA" fill-opacity="0.1"/>
<path d="M1120 0L1360 240L1120 240V0Z" fill="#494274" fill-opacity="0.2"/>
<path d="M639.4 240V480L399.4 480L639.4 240Z" fill="#F08080" fill-opacity="0.2"/>
<path d="M399.4 240L639.4 480L399.4 480L399.4 240Z" fill="#5552FA" fill-opacity="0.1"/>
<path d="M399.4 240V0L639.4 0L399.4 240Z" fill="#F08080" fill-opacity="0.2"/>
<path d="M639.4 240L399.4 0L639.4 0V240Z" fill="#5552FA" fill-opacity="0.1"/>
</g>
</g>
<defs>
<clipPath id="clip0">
<rect width="1600" height="1200" fill="white"/>
</clipPath>
</defs>
</svg>
