<svg width="1600" height="1200" viewBox="0 0 1600 1200" fill="none" xmlns="http://www.w3.org/2000/svg">
<mask id="mask0" mask-type="alpha" maskUnits="userSpaceOnUse" x="0" y="0" width="1600" height="1200">
<rect width="1600" height="1200" fill="white"/>
</mask>
<g mask="url(#mask0)">
<path d="M1629 143C1649.99 143 1667 126.211 1667 105.5C1667 84.7893 1649.99 68 1629 68C1608.01 68 1591 84.7893 1591 105.5C1591 126.211 1608.01 143 1629 143Z" stroke="#CFCFAF" stroke-opacity="0.5" stroke-width="30" stroke-linejoin="round"/>
<path d="M1406 966.952V981.952C1414.28 981.952 1421 975.236 1421 966.952H1406ZM1376 966.952H1361C1361 975.236 1367.72 981.952 1376 981.952V966.952ZM1565.86 868.658L1578.96 875.978C1583 868.747 1580.41 859.608 1573.18 855.565L1565.86 868.658ZM1551.22 894.844L1543.91 907.937C1547.38 909.878 1551.48 910.36 1555.31 909.278C1559.14 908.195 1562.38 905.636 1564.32 902.163L1551.22 894.844ZM1602.08 899.29L1613.83 889.972C1608.69 883.48 1599.25 882.389 1592.76 887.535L1602.08 899.29ZM1626 1035V1050C1634.28 1050 1641 1043.28 1641 1035H1626ZM1596 1035H1581C1581 1043.28 1587.72 1050 1596 1050V1035ZM1578.57 917.925L1569.25 906.17C1562.76 911.317 1561.67 920.751 1566.81 927.243L1578.57 917.925ZM1421 966.952C1421 930.891 1454.12 897 1501 897V867C1440.18 867 1391 911.812 1391 966.952H1421ZM1376 981.952H1406V951.952H1376V981.952ZM1501 837C1426.5 837 1361 892.492 1361 966.952H1391C1391 911.796 1440.19 867 1501 867V837ZM1573.18 855.565C1551.98 843.71 1527.22 837 1501 837V867C1522.09 867 1541.81 872.393 1558.54 881.751L1573.18 855.565ZM1564.32 902.163L1578.96 875.978L1552.77 861.339L1538.13 887.524L1564.32 902.163ZM1501 897C1516.96 897 1531.63 901.077 1543.91 907.937L1558.54 881.751C1541.81 872.393 1522.09 867 1501 867V897ZM1641 966.952C1641 937.934 1630.74 911.305 1613.83 889.972L1590.32 908.607C1603.34 925.024 1611 945.176 1611 966.952H1641ZM1641 1035V966.952H1611V1035H1641ZM1596 1050H1626V1020H1596V1050ZM1581 966.952V1035H1611V966.952H1581ZM1566.81 927.243C1575.92 938.738 1581 952.412 1581 966.952H1611C1611 945.177 1603.34 925.024 1590.32 908.607L1566.81 927.243ZM1592.76 887.535L1569.25 906.17L1587.89 929.68L1611.4 911.045L1592.76 887.535Z" fill="#F18B62" fill-opacity="0.5"/>
<path d="M1654 275H1690.55C1715.1 275 1735 255.972 1735 232.5C1735 209.028 1715.1 190 1690.55 190H1617.45C1592.9 190 1573 209.028 1573 232.5" stroke="#F18B62" stroke-opacity="0.5" stroke-width="30" stroke-linejoin="round"/>
<path d="M1612 1196C1612 1157.89 1642.8 1127 1680.79 1127H1802" stroke="#CFCFAF" stroke-opacity="0.5" stroke-width="30" stroke-linejoin="round"/>
<path d="M968.844 54.7743L981.938 62.093C985.98 54.8618 983.394 45.723 976.163 41.6809L968.844 54.7743ZM1040.95 200H1055.95C1055.95 191.716 1049.24 185 1040.95 185V200ZM1040.95 230V245C1049.24 245 1055.95 238.284 1055.95 230H1040.95ZM942.658 40.1368L949.976 27.0434C946.504 25.1024 942.402 24.6203 938.574 25.7032C934.746 26.7862 931.505 29.3454 929.564 32.818L942.658 40.1368ZM973.29 3.91893L963.973 -7.83651C957.481 -2.69077 956.389 6.74375 961.535 13.2361L973.29 3.91893ZM1109 -20H1124C1124 -28.2843 1117.28 -35 1109 -35V-20ZM1109 10V25C1117.28 25 1124 18.2843 1124 10L1109 10ZM991.925 27.4298L980.169 36.747C982.64 39.8647 986.249 41.8731 990.201 42.3304C994.152 42.7876 998.124 41.6563 1001.24 39.1852L991.925 27.4298ZM971 105C971 89.0392 975.076 74.369 981.938 62.093L955.751 47.4555C946.393 64.1967 941 83.9051 941 105H971ZM1040.95 185C1004.89 185 971 151.882 971 105H941C941 165.822 985.812 215 1040.95 215V185ZM1055.95 230V200H1025.95V230H1055.95ZM911 105C911 179.498 966.491 245 1040.95 245V215C985.796 215 941 165.804 941 105H911ZM929.564 32.818C917.711 54.0243 911 78.7709 911 105H941C941 83.9051 946.393 64.1967 955.751 47.4555L929.564 32.818ZM976.163 41.6809L949.976 27.0434L935.339 53.2301L961.526 67.8676L976.163 41.6809ZM1040.95 -35C1011.94 -35 985.307 -24.745 963.973 -7.83651L982.607 15.6744C999.024 2.66291 1019.18 -5 1040.95 -5V-35ZM1109 -35H1040.95V-5H1109V-35ZM1124 10V-20H1094V10H1124ZM1040.95 25H1109V-5H1040.95V25ZM1001.24 39.1852C1012.74 30.0749 1026.41 25 1040.95 25V-5C1019.18 -5 999.024 2.66256 982.607 15.6744L1001.24 39.1852ZM961.535 13.2361L980.169 36.747L1003.68 18.1126L985.046 -5.39825L961.535 13.2361Z" fill="#CFCFAF" fill-opacity="0.5"/>
<path d="M1317.5 1115H1314.36C1292.07 1115 1274 1133.13 1274 1155.5C1274 1177.87 1292.07 1196 1314.36 1196H1407.64C1429.93 1196 1448 1177.87 1448 1155.5C1448 1133.13 1429.93 1115 1407.64 1115H1404.5" stroke="#4D447D" stroke-opacity="0.5" stroke-width="30" stroke-linejoin="round"/>
<path d="M964 1200C938.04 1200 917 1178.96 917 1153C917 1127.04 938.04 1106 964 1106" stroke="#89C7AA" stroke-opacity="0.5" stroke-width="30" stroke-linejoin="round"/>
<path d="M1364.56 223C1386.34 223 1404 205.539 1404 184C1404 162.461 1386.34 145 1364.56 145H1320" stroke="#F18B62" stroke-opacity="0.5" stroke-width="30" stroke-linejoin="round"/>
<path d="M113 5.00063L-109.95 5C-153.608 5 -189 40.3696 -189 84" stroke="#4D447D" stroke-opacity="0.5" stroke-width="30" stroke-linejoin="round"/>
<path d="M1525 1200V1047.92C1525 1018.14 1500.83 994 1471 994C1441.17 994 1417 1018.14 1417 1047.92V1071.46" stroke="#89C7AA" stroke-opacity="0.5" stroke-width="30" stroke-linejoin="round"/>
<path d="M-12 401C39.9146 401 82 359.587 82 308.5C82 257.413 39.9146 216 -12 216C-63.9146 216 -106 257.413 -106 308.5" stroke="#F18B62" stroke-opacity="0.5" stroke-width="30" stroke-linejoin="round"/>
<path d="M63.3804 100.5C63.3804 124.525 44.0437 144 20.1902 144C-3.66336 144 -23 124.525 -23 100.5C-23 76.4755 -3.66336 57 20.1902 57H105" stroke="#CFCFAF" stroke-opacity="0.5" stroke-width="30" stroke-linejoin="round"/>
<path d="M644 93.5V35.1527C644 18.4998 657.434 5 674 5C690.566 5 704 18.4998 704 35.1527V151.847C704 168.5 690.566 182 674 182C657.434 182 644 168.5 644 151.847V137.75" stroke="#F18B62" stroke-opacity="0.5" stroke-width="30" stroke-linejoin="round"/>
<path d="M588 14V165.829C588 211.211 624.936 248 670.5 248C716.064 248 753 211.211 753 165.829V129.957" stroke="#89C7AA" stroke-opacity="0.5" stroke-width="30" stroke-linejoin="round"/>
<path d="M1176 57H1355.98C1424.47 57 1480 112.741 1480 181.5C1480 250.259 1424.47 306 1355.98 306H1301.83" stroke="#89C7AA" stroke-opacity="0.5" stroke-width="30" stroke-linejoin="round"/>
<path d="M1659 311V393.012C1659 428.351 1630.08 457 1594.41 457H1544" stroke="#4D447D" stroke-opacity="0.5" stroke-width="30" stroke-linejoin="round"/>
<path d="M416 361V415.993C416 455.762 448.236 488 488 488" stroke="#89C7AA" stroke-opacity="0.5" stroke-width="30" stroke-linejoin="round"/>
<path d="M305 750V663.92C305 614.356 343.841 572.837 396 562" stroke="#F18B62" stroke-opacity="0.5" stroke-width="30" stroke-linejoin="round"/>
<path d="M1298.5 440.5H1403.81C1464.45 440.5 1515.24 487.877 1528.5 551.5" stroke="#4D447D" stroke-opacity="0.5" stroke-width="30"/>
<path d="M1514 321.3C1514 295.177 1535.27 274 1561.5 274C1587.73 274 1609 295.177 1609 321.3V355.7C1609 381.823 1587.73 403 1561.5 403C1535.27 403 1514 381.823 1514 355.7V321.3Z" stroke="#89C7AA" stroke-opacity="0.5" stroke-width="30" stroke-linejoin="round"/>
<path d="M528.999 368L529 167.197C529 127.877 497.212 96 458 96" stroke="#F18B62" stroke-opacity="0.5" stroke-width="30" stroke-linejoin="round"/>
<path d="M1201 248C1218.67 248 1233 233.673 1233 216C1233 198.327 1218.67 184 1201 184C1183.33 184 1169 198.327 1169 216C1169 233.673 1183.33 248 1201 248Z" stroke="#89C7AA" stroke-opacity="0.5" stroke-width="30" stroke-linejoin="round"/>
<path d="M1201 306C1251.81 306 1293 265.482 1293 215.5C1293 165.518 1251.81 125 1201 125C1150.19 125 1109 165.518 1109 215.5" stroke="#F18B62" stroke-opacity="0.5" stroke-width="30" stroke-linejoin="round"/>
<path d="M1045.5 67C1024.79 67 1008 83.7889 1008 104.5C1008 125.211 1024.79 142 1045.5 142C1066.21 142 1083 125.211 1083 104.5V67" stroke="#4D447D" stroke-opacity="0.5" stroke-width="30" stroke-linejoin="round"/>
<path d="M897.5 812.758C873.477 812.758 854 832.06 854 855.875C854 879.691 873.477 899 897.5 899C921.523 899 941 879.691 941 855.875V724" stroke="#CFCFAF" stroke-opacity="0.5" stroke-width="30" stroke-linejoin="round"/>
<path d="M727.831 1106.5C727.831 1128.31 745.334 1146 766.92 1146C788.505 1146 806 1128.31 806 1106.5C806 1084.69 788.505 1067 766.92 1067H636" stroke="#F18B62" stroke-opacity="0.5" stroke-width="30" stroke-linejoin="round"/>
<path d="M563.792 1122H663.208C683.53 1122 700 1138.56 700 1159C700 1179.44 683.53 1196 663.208 1196H563.792C543.473 1196 527 1179.44 527 1159C527 1138.56 543.473 1122 563.792 1122Z" stroke="#CFCFAF" stroke-opacity="0.5" stroke-width="30" stroke-linejoin="round"/>
<path d="M379 262C379 311.706 338.706 352 289 352C239.294 352 199 311.706 199 262" stroke="#F18B62" stroke-opacity="0.5" stroke-width="30" stroke-linejoin="round"/>
<path d="M457 307V197.002C457 175.462 439.539 158 418 158C396.461 158 379 175.462 379 197.002V214.028" stroke="#4D447D" stroke-opacity="0.5" stroke-width="30" stroke-linejoin="round"/>
<path d="M226 451C240.912 451 253 439.136 253 424.5C253 409.864 240.912 398 226 398C211.088 398 199 409.864 199 424.5C199 439.136 211.088 451 226 451Z" stroke="#4D447D" stroke-opacity="0.5" stroke-width="30" stroke-linejoin="round"/>
<path d="M249 245.225V134.775C249 113.36 266.461 96 288 96C309.539 96 327 113.36 327 134.775V245.225C327 266.64 309.539 284 288 284C266.461 284 249 266.64 249 245.225Z" stroke="#CFCFAF" stroke-opacity="0.5" stroke-width="30" stroke-linejoin="round"/>
<path d="M1142 307H1053.93C998.188 307 953 352.219 953 408" stroke="#F18B62" stroke-opacity="0.5" stroke-width="30" stroke-linejoin="round"/>
<path d="M-12.5 348.51C8.21094 348.51 25 331.831 25 311.255C25 290.679 8.21094 274 -12.5 274C-33.2109 274 -50 290.679 -50 311.255V554" stroke="#4D447D" stroke-opacity="0.5" stroke-width="30" stroke-linejoin="round"/>
<path d="M1229.5 501C1207.69 501 1190 518.461 1190 540C1190 561.539 1207.69 579 1229.5 579C1251.31 579 1269 561.539 1269 540V501" stroke="#F18B62" stroke-opacity="0.5" stroke-width="30" stroke-linejoin="round"/>
<path d="M1471 685.754C1471 741.671 1516.89 787 1573.5 787C1630.11 787 1676 741.671 1676 685.754V577" stroke="#89C7AA" stroke-opacity="0.5" stroke-width="30" stroke-linejoin="round"/>
<path d="M1417.63 733H1412.53C1383.52 733 1360 709.495 1360 680.5C1360 651.505 1383.52 628 1412.53 628H1572.47C1601.48 628 1625 651.505 1625 680.5C1625 709.495 1601.48 733 1572.47 733H1570.9" stroke="#4D447D" stroke-opacity="0.5" stroke-width="30" stroke-linejoin="round"/>
<path d="M1320 501H1384.53C1427.87 501 1463 535.922 1463 579" stroke="#89C7AA" stroke-opacity="0.5" stroke-width="30" stroke-linejoin="round"/>
<path d="M651 895C671.987 895 689 878.211 689 857.5C689 836.789 671.987 820 651 820C630.013 820 613 836.789 613 857.5C613 878.211 630.013 895 651 895Z" stroke="#4D447D" stroke-opacity="0.5" stroke-width="30" stroke-linejoin="round"/>
<path d="M558.404 835.52C544.46 887.644 574.621 941.026 625.76 954.757C676.9 968.487 729.656 937.361 743.597 885.237C757.538 833.114 727.38 779.732 676.241 766" stroke="#CFCFAF" stroke-opacity="0.5" stroke-width="30" stroke-linejoin="round"/>
<path d="M627.659 765.602H442.399C406.696 765.583 377.739 736.08 377.723 699.702C377.706 663.323 406.633 633.846 442.336 633.864C478.038 633.883 506.996 663.385 507.012 699.764H446.692V699.764" stroke="#4D447D" stroke-opacity="0.5" stroke-width="30"/>
<path d="M623.5 552C623.5 560.958 623.5 673.732 623.5 729" stroke="#89C7AA" stroke-opacity="0.5" stroke-width="30" stroke-linejoin="round"/>
<path d="M283.02 1107C266.992 1107 254 1094.24 254 1078.5C254 1062.76 266.992 1050 283.02 1050H314" stroke="#CFCFAF" stroke-opacity="0.5" stroke-width="30" stroke-linejoin="round"/>
<path d="M109.5 1150C132.42 1150 151 1131.64 151 1109C151 1086.36 132.42 1068 109.5 1068C86.5802 1068 68 1086.36 68 1109C68 1131.64 86.5802 1150 109.5 1150Z" stroke="#F18B62" stroke-opacity="0.5" stroke-width="30" stroke-linejoin="round"/>
<path d="M197 1108C197 1057.19 156.482 1016 106.5 1016C56.5181 1016 16 1057.19 16 1108C16 1158.81 56.5181 1200 106.5 1200" stroke="#4D447D" stroke-opacity="0.5" stroke-width="30" stroke-linejoin="round"/>
<path d="M351 1050H388.905C414.363 1050 435 1030.3 435 1006C435 981.698 414.363 962 388.905 962H313.095C287.637 962 267 981.698 267 1006" stroke="#4D447D" stroke-opacity="0.5" stroke-width="30" stroke-linejoin="round"/>
<path d="M198 987C198 940.612 235.445 903 281.636 903H429" stroke="#4D447D" stroke-opacity="0.5" stroke-width="30" stroke-linejoin="round"/>
<path d="M150.5 903C150.5 907.248 150.5 960.766 150.5 987" stroke="#F18B62" stroke-opacity="0.5" stroke-width="30" stroke-linejoin="round"/>
<path d="M568.5 652C568.5 655.695 568.5 702.206 568.5 725" stroke="#F18B62" stroke-opacity="0.5" stroke-width="30" stroke-linejoin="round"/>
<path d="M684.085 445.5C684.085 468.42 665.713 487 643.042 487C620.372 487 602 468.42 602 445.5C602 422.58 620.372 404 643.042 404H775" stroke="#F18B62" stroke-opacity="0.5" stroke-width="30" stroke-linejoin="round"/>
<path d="M828 534.5V476.153C828 459.5 841.434 446 858 446C874.566 446 888 459.5 888 476.153V592.847C888 609.5 874.566 623 858 623C841.434 623 828 609.5 828 592.847V578.75" stroke="#CFCFAF" stroke-opacity="0.5" stroke-width="30" stroke-linejoin="round"/>
<path d="M776 446V597.829C776 643.211 812.936 680 858.5 680C904.064 680 941 643.211 941 597.829V561.957" stroke="#89C7AA" stroke-opacity="0.5" stroke-width="30" stroke-linejoin="round"/>
<path d="M789 311H745.695C714.383 311 689 336.52 689 368" stroke="#4D447D" stroke-opacity="0.5" stroke-width="30" stroke-linejoin="round"/>
<path d="M827.5 268C827.5 274.07 827.5 366.553 827.5 404" stroke="#F18B62" stroke-opacity="0.5" stroke-width="30" stroke-linejoin="round"/>
<path d="M1076 490.149V503.332C1076 521.927 1060.83 537 1042.12 537C1023.41 537 1008.24 521.927 1008.24 503.332V492.412C1008.24 473.959 993.187 459 974.624 459C956.054 459 941 473.959 941 492.412V505.851" stroke="#89C7AA" stroke-opacity="0.5" stroke-width="30" stroke-linejoin="round"/>
<path d="M4.5 764.081C-16.2109 764.081 -33 780.855 -33 801.541C-33 822.226 -16.2109 839 4.5 839C25.2109 839 42 822.226 42 801.541V742" stroke="#4D447D" stroke-opacity="0.5" stroke-width="30" stroke-linejoin="round"/>
<path d="M47 687V627.934C47 593.925 73.89 565.436 110 558" stroke="#CFCFAF" stroke-opacity="0.5" stroke-width="30" stroke-linejoin="round"/>
<path d="M4.5 600C4.5 592.129 4.5 506.562 4.5 458" stroke="#89C7AA" stroke-opacity="0.5" stroke-width="30" stroke-linejoin="round"/>
<path d="M101 667.879C101 641.437 122.491 620 149 620C175.509 620 197 641.437 197 667.879V780.121C197 806.564 175.509 828 149 828C122.491 828 101 806.564 101 780.121V667.879Z" stroke="#89C7AA" stroke-opacity="0.5" stroke-width="30" stroke-linejoin="round"/>
<path d="M1008 885.437C1008 863.66 1025.46 846 1047 846C1068.54 846 1086 863.66 1086 885.437V930" stroke="#F18B62" stroke-opacity="0.5" stroke-width="30" stroke-linejoin="round"/>
<path d="M1168.5 864C1191.42 864 1210 845.644 1210 823C1210 800.356 1191.42 782 1168.5 782C1145.58 782 1127 800.356 1127 823C1127 845.644 1145.58 864 1168.5 864Z" stroke="#F18B62" stroke-opacity="0.5" stroke-width="30" stroke-linejoin="round"/>
<path d="M1087.73 1004.5C1087.73 1025.21 1071 1042 1050.37 1042C1029.73 1042 1013 1025.21 1013 1004.5C1013 983.789 1029.73 967 1050.37 967H1190" stroke="#CFCFAF" stroke-opacity="0.5" stroke-width="30" stroke-linejoin="round"/>
<path d="M1041 728H1177.16C1228.99 728 1271 770.089 1271 822C1271 873.911 1228.99 916 1177.16 916H1136.2" stroke="#4D447D" stroke-opacity="0.5" stroke-width="30" stroke-linejoin="round"/>
<path d="M1239 967H1282.15C1325.7 967 1361 1002.45 1361 1046.19V1127" stroke="#CFCFAF" stroke-opacity="0.5" stroke-width="30" stroke-linejoin="round"/>
<path d="M1281 1073C1295.91 1073 1308 1061.14 1308 1046.5C1308 1031.86 1295.91 1020 1281 1020C1266.09 1020 1254 1031.86 1254 1046.5C1254 1061.14 1266.09 1073 1281 1073Z" stroke="#4D447D" stroke-opacity="0.5" stroke-width="30" stroke-linejoin="round"/>
<path d="M1134.47 1136C1134.49 1146 1134.51 1156 1134.53 1166" stroke="#89C7AA" stroke-opacity="0.5" stroke-width="30" stroke-linejoin="round"/>
<path d="M1134.47 1077C1134.49 1087 1134.51 1097 1134.53 1107" stroke="#CFCFAF" stroke-opacity="0.5" stroke-width="30" stroke-linejoin="round"/>
<path d="M947.471 1026C947.49 1036 947.51 1046 947.529 1056" stroke="#89C7AA" stroke-opacity="0.5" stroke-width="30" stroke-linejoin="round"/>
<path d="M947.471 967C947.49 977 947.51 987 947.529 997" stroke="#F18B62" stroke-opacity="0.5" stroke-width="30" stroke-linejoin="round"/>
<path d="M887.471 967C887.49 977 887.51 987 887.529 997" stroke="#CFCFAF" stroke-opacity="0.5" stroke-width="30" stroke-linejoin="round"/>
<path d="M471.471 888C471.49 898 471.51 908 471.529 918" stroke="#4D447D" stroke-opacity="0.5" stroke-width="30" stroke-linejoin="round"/>
<path d="M28.4714 909C28.4905 919 28.5095 929 28.5286 939" stroke="#F18B62" stroke-opacity="0.5" stroke-width="30" stroke-linejoin="round"/>
<path d="M163.471 505C163.49 515 163.51 525 163.529 535" stroke="#F18B62" stroke-opacity="0.5" stroke-width="30" stroke-linejoin="round"/>
<path d="M114.471 431C114.49 441 114.51 451 114.529 461" stroke="#CFCFAF" stroke-opacity="0.5" stroke-width="30" stroke-linejoin="round"/>
<path d="M528.471 472C528.49 482 528.51 492 528.529 502" stroke="#89C7AA" stroke-opacity="0.5" stroke-width="30" stroke-linejoin="round"/>
<path d="M826.471 155C826.49 165 826.51 175 826.529 185" stroke="#89C7AA" stroke-opacity="0.5" stroke-width="30" stroke-linejoin="round"/>
<path d="M826.471 98C826.49 108 826.51 118 826.529 128" stroke="#4D447D" stroke-opacity="0.5" stroke-width="30" stroke-linejoin="round"/>
<path d="M1155.47 632C1155.49 642 1155.51 652 1155.53 662" stroke="#4D447D" stroke-opacity="0.5" stroke-width="30" stroke-linejoin="round"/>
<path d="M1226.47 632C1226.49 642 1226.51 652 1226.53 662" stroke="#4D447D" stroke-opacity="0.5" stroke-width="30" stroke-linejoin="round"/>
<path d="M1297.47 632C1297.49 642 1297.51 652 1297.53 662" stroke="#4D447D" stroke-opacity="0.5" stroke-width="30" stroke-linejoin="round"/>
</g>
</svg>
